<?xml version="1.0" encoding="UTF-8" standalone="no"?>
<!-- Created with Inkscape (http://www.inkscape.org/) -->

<svg
   xmlns:dc="http://purl.org/dc/elements/1.1/"
   xmlns:cc="http://creativecommons.org/ns#"
   xmlns:rdf="http://www.w3.org/1999/02/22-rdf-syntax-ns#"
   xmlns:svg="http://www.w3.org/2000/svg"
   xmlns="http://www.w3.org/2000/svg"
   xmlns:xlink="http://www.w3.org/1999/xlink"
   xmlns:sodipodi="http://sodipodi.sourceforge.net/DTD/sodipodi-0.dtd"
   xmlns:inkscape="http://www.inkscape.org/namespaces/inkscape"
   width="94.501564mm"
   height="20.644711mm"
   viewBox="0 0 334.84806 73.150549"
   id="svg2"
   version="1.1"
   inkscape:version="0.91 r13725"
   sodipodi:docname="logo.svg"
   inkscape:export-filename="C:\Users\Dell\Dropbox\Shared\Chainsaw Master\Graphics\Chainsaw Master - Logo 1400x306.png"
   inkscape:export-xdpi="376.29001"
   inkscape:export-ydpi="376.29001">
  <defs
     id="defs4">
    <linearGradient
       inkscape:collect="always"
       id="linearGradient8279">
      <stop
         style="stop-color:#ff6600;stop-opacity:1;"
         offset="0"
         id="stop8281" />
      <stop
         style="stop-color:#000000;stop-opacity:1"
         offset="1"
         id="stop8283" />
    </linearGradient>
    <linearGradient
       inkscape:collect="always"
       xlink:href="#linearGradient8279"
       id="linearGradient8299"
       x1="214.63902"
       y1="370.26657"
       x2="179.81165"
       y2="370.26657"
       gradientUnits="userSpaceOnUse" />
  </defs>
  <sodipodi:namedview
     id="base"
     pagecolor="#ffffff"
     bordercolor="#666666"
     borderopacity="1.0"
     inkscape:pageopacity="0.0"
     inkscape:pageshadow="2"
     inkscape:zoom="2"
     inkscape:cx="192.15579"
     inkscape:cy="-8.9403923"
     inkscape:document-units="px"
     inkscape:current-layer="layer1"
     showgrid="false"
     inkscape:object-nodes="true"
     inkscape:snap-smooth-nodes="true"
     inkscape:snap-global="true"
     inkscape:window-width="1035"
     inkscape:window-height="697"
     inkscape:window-x="237"
     inkscape:window-y="-8"
     inkscape:window-maximized="1"
     showguides="false"
     inkscape:guide-bbox="true"
     fit-margin-top="0"
     fit-margin-left="0"
     fit-margin-right="0"
     fit-margin-bottom="0">
    <sodipodi:guide
       position="410.78818,-768.23991"
       orientation="0,1"
       id="guide13530" />
    <sodipodi:guide
       position="410.78818,-734.53487"
       orientation="0,1"
       id="guide13532" />
  </sodipodi:namedview>
  <metadata
     id="metadata7">
    <rdf:RDF>
      <cc:Work
         rdf:about="">
        <dc:format>image/svg+xml</dc:format>
        <dc:type
           rdf:resource="http://purl.org/dc/dcmitype/StillImage" />
        <dc:title />
      </cc:Work>
    </rdf:RDF>
  </metadata>
  <g
     inkscape:label="Layer 1"
     inkscape:groupmode="layer"
     id="layer1"
     transform="translate(-166.63566,-156.91417)">
    <g
       style="font-style:normal;font-weight:normal;font-size:15px;line-height:125%;font-family:sans-serif;letter-spacing:0px;word-spacing:0px;fill:#000000;fill-opacity:0.98235294;stroke:none;stroke-width:1px;stroke-linecap:butt;stroke-linejoin:miter;stroke-opacity:1"
       id="text8068-2-9"
       transform="translate(0,-55.535714)" />
    <g
       id="g14014"
       transform="translate(-260.21529,-1380.2724)">
      <g
         transform="translate(29.144897,592.03532)"
         style="fill:#666666"
         id="g13383-7-2">
        <path
           style="fill:#666666;fill-rule:evenodd;stroke:none;stroke-width:1px;stroke-linecap:butt;stroke-linejoin:miter;stroke-opacity:1"
           d="m 397.70605,981.65042 c 4.0467,-1.01265 6.39936,2.06342 7.67449,5.2301 1.63669,2.75503 3.35379,-11.82377 -0.21041,-10.75644 -7.1924,1.31682 -7.20103,3.98425 -7.46408,5.52634 z"
           id="use8612-1-9-8-0"
           inkscape:connector-curvature="0"
           sodipodi:nodetypes="cccc" />
        <g
           id="g13918"
           style="fill:#666666">
          <path
             sodipodi:nodetypes="cccc"
             inkscape:connector-curvature="0"
             id="path8469-3-9-8-7-0-0-4"
             d="m 557.62693,950.59836 c 0.62307,4.12466 -2.66273,6.17407 -5.93639,7.14223 l 10.72767,0.81363 c -0.62673,-7.28501 -3.28124,-7.54733 -4.79128,-7.95586 z"
             style="fill:#666666;fill-rule:evenodd;stroke:none;stroke-width:1px;stroke-linecap:butt;stroke-linejoin:miter;stroke-opacity:1" />
          <path
             sodipodi:nodetypes="cccc"
             inkscape:connector-curvature="0"
             id="path8469-3-9-8-7-1-1-6-8"
             d="m 557.65427,1012.7758 c -1.25244,-3.979 1.67751,-6.5112 4.76243,-7.9733 l -10.72466,0.8524 c 1.74406,7.101 4.40724,6.9503 5.96223,7.1209 z"
             style="fill:#666666;fill-rule:evenodd;stroke:none;stroke-width:1px;stroke-linecap:butt;stroke-linejoin:miter;stroke-opacity:1" />
        </g>
        <g
           transform="translate(-1.0685425,0)"
           id="g13906"
           style="fill:#666666">
          <path
             style="fill:#666666;fill-rule:evenodd;stroke:none;stroke-width:1px;stroke-linecap:butt;stroke-linejoin:miter;stroke-opacity:1"
             d="m 488.17724,945.23611 c 0.76049,4.10157 -2.45503,6.2596 -5.69451,7.33657 l 10.74885,0.45483 c -0.86975,-7.26002 -3.53154,-7.43352 -5.05434,-7.7914 z"
             id="use8606-5-3-1-4"
             inkscape:connector-curvature="0"
             sodipodi:nodetypes="cccc" />
          <path
             style="fill:#666666;fill-rule:evenodd;stroke:none;stroke-width:1px;stroke-linecap:butt;stroke-linejoin:miter;stroke-opacity:1"
             d="m 488.19394,1018.1519 c -1.11317,-4.0202 1.90319,-6.4489 5.03713,-7.8027 l -10.74782,0.4788 c 1.49577,7.1573 4.16259,7.0993 5.71069,7.3239 z"
             id="use8606-5-9-5-7-5"
             inkscape:connector-curvature="0"
             sodipodi:nodetypes="cccc" />
        </g>
        <g
           transform="translate(-0.72079468,0)"
           id="g13910"
           style="fill:#666666">
          <path
             style="fill:#666666;fill-rule:evenodd;stroke:none;stroke-width:1px;stroke-linecap:butt;stroke-linejoin:miter;stroke-opacity:1"
             d="m 451.98403,945.15125 c 1.14273,4.01191 -1.85561,6.46268 -4.97951,7.83944 l 10.74399,-0.55776 c -1.54845,-7.14609 -4.21477,-7.06858 -5.76448,-7.28168 z"
             id="use8608-4-88-3-1"
             inkscape:connector-curvature="0"
             sodipodi:nodetypes="cccc" />
          <path
             style="fill:#666666;fill-rule:evenodd;stroke:none;stroke-width:1px;stroke-linecap:butt;stroke-linejoin:miter;stroke-opacity:1"
             d="m 452.01408,1018.3018 c -0.7375,-4.1057 2.49002,-6.2457 5.73551,-7.3046 l -10.74615,-0.515 c 0.82905,7.2648 3.48985,7.4532 5.01063,7.8196 z"
             id="use8608-4-8-2-8-48"
             inkscape:connector-curvature="0"
             sodipodi:nodetypes="cccc" />
        </g>
        <g
           id="g13922"
           style="fill:#666666">
          <path
             style="fill:#666666;fill-rule:evenodd;stroke:none;stroke-width:1px;stroke-linecap:butt;stroke-linejoin:miter;stroke-opacity:1"
             d="m 412.20337,953.2061 c 3.03607,2.86064 1.71579,6.50118 -0.26232,9.2835 l 8.94261,-5.98121 c -4.98962,-5.34494 -7.24008,-3.91291 -8.68029,-3.30229 z"
             id="use8610-8-2-2-2"
             inkscape:connector-curvature="0"
             sodipodi:nodetypes="cccc" />
          <path
             style="fill:#666666;fill-rule:evenodd;stroke:none;stroke-width:1px;stroke-linecap:butt;stroke-linejoin:miter;stroke-opacity:1"
             d="m 412.99236,1011.2875 c 1.09836,-4.0242 4.93232,-4.5695 8.31788,-4.131 4.43578,-0.7165 -8.30891,-8.24733 -9.48202,-5.083 -2.37325,6.9161 -0.0517,8.2297 1.16414,9.214 z"
             id="use8610-8-5-0-7-0"
             inkscape:connector-curvature="0"
             sodipodi:nodetypes="cccc" />
        </g>
        <g
           transform="translate(-0.48950195,0)"
           id="g13914"
           style="fill:#666666">
          <path
             style="fill:#666666;fill-rule:evenodd;stroke:none;stroke-width:1px;stroke-linecap:butt;stroke-linejoin:miter;stroke-opacity:1"
             d="m 522.8906,947.74191 c 0.67378,4.11669 -2.58654,6.20638 -5.84804,7.21475 l 10.73686,0.68157 c -0.71635,-7.27678 -3.37388,-7.50642 -4.88882,-7.89632 z"
             id="use8606-5-7-7-3-8"
             inkscape:connector-curvature="0"
             sodipodi:nodetypes="cccc" />
          <path
             style="fill:#666666;fill-rule:evenodd;stroke:none;stroke-width:1px;stroke-linecap:butt;stroke-linejoin:miter;stroke-opacity:1"
             d="m 523.01984,1015.6857 c -1.25717,-3.9775 1.66977,-6.5132 4.75296,-7.9789 l -10.72362,0.8654 c 1.75249,7.0989 4.41547,6.9449 5.97066,7.1135 z"
             id="use8606-5-7-2-8-3-4"
             inkscape:connector-curvature="0"
             sodipodi:nodetypes="cccc" />
        </g>
      </g>
      <path
         inkscape:connector-curvature="0"
         id="path13534-7-3"
         d="m 492.76953,1544.2445 c -2.16733,0.022 -4.29589,0.066 -6.38086,0.1368 -16.67974,0.5618 -30.24904,0.8531 -39.65429,5.5097 -9.40528,4.6566 -12.28321,13.1682 -12.28321,23.8692 0,10.7009 2.87794,19.2125 12.28321,23.8691 9.40524,4.6566 22.97455,4.9479 39.65429,5.5098 33.35949,1.1238 77.65862,-4.2556 120.17969,-7.3399 l 0,-44.0781 c -39.8635,-2.8915 -81.28889,-7.8003 -113.79883,-7.4766 z"
         style="fill:#b3b3b3;fill-rule:evenodd;stroke:none;stroke-width:1px;stroke-linecap:butt;stroke-linejoin:miter;stroke-opacity:1" />
      <g
         transform="translate(29.144897,592.30794)"
         style="fill:#666666"
         id="g13400-9-3">
        <path
           style="color:#000000;font-style:normal;font-variant:normal;font-weight:normal;font-stretch:normal;font-size:medium;line-height:normal;font-family:sans-serif;text-indent:0;text-align:start;text-decoration:none;text-decoration-line:none;text-decoration-style:solid;text-decoration-color:#000000;letter-spacing:normal;word-spacing:normal;text-transform:none;direction:ltr;block-progression:tb;writing-mode:lr-tb;baseline-shift:baseline;text-anchor:start;white-space:normal;clip-rule:nonzero;display:inline;overflow:visible;visibility:visible;opacity:1;isolation:auto;mix-blend-mode:normal;color-interpolation:sRGB;color-interpolation-filters:linearRGB;solid-color:#000000;solid-opacity:1;fill:#666666;fill-opacity:1;fill-rule:evenodd;stroke:none;stroke-width:15;stroke-linecap:butt;stroke-linejoin:miter;stroke-miterlimit:4;stroke-dasharray:none;stroke-dashoffset:0;stroke-opacity:1;color-rendering:auto;image-rendering:auto;shape-rendering:auto;text-rendering:auto;enable-background:accumulate"
           d="m 410.57057,981.45213 c 0,-24.67005 18.73823,-22.68312 46.84154,-24.20604 32.6787,-1.10084 77.32014,4.25683 120.01172,7.35352 l 0,33.70504 z"
           id="path9562-5-2-6-7"
           inkscape:connector-curvature="0"
           sodipodi:nodetypes="ccccc" />
        <path
           style="color:#000000;font-style:normal;font-variant:normal;font-weight:normal;font-stretch:normal;font-size:medium;line-height:normal;font-family:sans-serif;text-indent:0;text-align:start;text-decoration:none;text-decoration-line:none;text-decoration-style:solid;text-decoration-color:#000000;letter-spacing:normal;word-spacing:normal;text-transform:none;direction:ltr;block-progression:tb;writing-mode:lr-tb;baseline-shift:baseline;text-anchor:start;white-space:normal;clip-rule:nonzero;display:inline;overflow:visible;visibility:visible;opacity:1;isolation:auto;mix-blend-mode:normal;color-interpolation:sRGB;color-interpolation-filters:linearRGB;solid-color:#000000;solid-opacity:1;fill:#666666;fill-opacity:1;fill-rule:evenodd;stroke:none;stroke-width:15;stroke-linecap:butt;stroke-linejoin:miter;stroke-miterlimit:4;stroke-dasharray:none;stroke-dashoffset:0;stroke-opacity:1;color-rendering:auto;image-rendering:auto;shape-rendering:auto;text-rendering:auto;enable-background:accumulate"
           d="m 410.57057,981.45213 c 0,24.67007 18.73823,22.68317 46.84154,24.20607 32.6787,1.1008 77.32014,-4.2569 120.01172,-7.35355 l 0,-33.70504 z"
           id="path9562-5-2-3-5-8"
           inkscape:connector-curvature="0"
           sodipodi:nodetypes="ccccc" />
      </g>
      <g
         transform="scale(0.88247327,1.1331788)"
         style="font-style:normal;font-weight:normal;font-size:35px;line-height:125%;font-family:sans-serif;letter-spacing:0px;word-spacing:0px;fill:#ffffff;fill-opacity:1;stroke:none;stroke-width:2;stroke-linecap:square;stroke-linejoin:bevel;stroke-opacity:1"
         id="text9250-7-4-4">
        <path
           d="m 524.08893,1392.5098 0.0342,0.1025 q -0.1709,4.375 -2.59766,6.6821 -2.40967,2.3072 -7.00683,2.3072 -4.61426,0 -7.50245,-2.837 -2.88818,-2.8369 -2.88818,-7.3657 l 0,-5.1953 q 0,-4.5117 2.76856,-7.3486 2.78564,-2.854 7.229,-2.854 4.7168,0 7.21191,2.3755 2.49512,2.3755 2.81983,6.7505 l -0.0342,0.1025 -5.62256,0 q -0.11963,-2.4268 -1.09375,-3.606 -0.95703,-1.1792 -3.28125,-1.1792 -1.96533,0 -3.09326,1.5894 -1.12793,1.5723 -1.12793,4.1357 l 0,5.2295 q 0,2.5806 1.23047,4.1699 1.23047,1.5894 3.38379,1.5894 2.08496,0 2.95654,-1.1108 0.87158,-1.1109 0.99121,-3.5376 l 5.62256,0 z"
           style="font-style:normal;font-variant:normal;font-weight:900;font-stretch:normal;font-size:35px;font-family:Roboto;-inkscape-font-specification:'Roboto Heavy';letter-spacing:0px;fill:#ffffff;stroke:none;stroke-width:2;stroke-linecap:square;stroke-linejoin:bevel"
           id="path4186" />
        <path
           d="m 547.96344,1401.2427 -5.75928,0 0,-10.0147 -9.21142,0 0,10.0147 -5.79346,0 0,-24.8828 5.79346,0 0,10.4248 9.21142,0 0,-10.4248 5.75928,0 0,24.8828 z"
           style="font-style:normal;font-variant:normal;font-weight:900;font-stretch:normal;font-size:35px;font-family:Roboto;-inkscape-font-specification:'Roboto Heavy';letter-spacing:0px;fill:#ffffff;stroke:none;stroke-width:2;stroke-linecap:square;stroke-linejoin:bevel"
           id="path4188" />
        <path
           d="m 565.44635,1396.4063 -7.84424,0 -1.40137,4.8364 -5.81054,0 8.03222,-24.8828 6.20362,0 8.04931,24.8828 -5.81054,0 -1.41846,-4.8364 z m -6.5625,-4.4434 5.28076,0 -2.59765,-8.9038 -0.10254,0 -2.58057,8.9038 z"
           style="font-style:normal;font-variant:normal;font-weight:900;font-stretch:normal;font-size:35px;font-family:Roboto;-inkscape-font-specification:'Roboto Heavy';letter-spacing:0px;fill:#ffffff;stroke:none;stroke-width:2;stroke-linecap:square;stroke-linejoin:bevel"
           id="path4190" />
        <path
           d="m 580.58795,1401.2427 -5.75928,0 0,-24.8828 5.75928,0 0,24.8828 z"
           style="font-style:normal;font-variant:normal;font-weight:900;font-stretch:normal;font-size:35px;font-family:Roboto;-inkscape-font-specification:'Roboto Heavy';letter-spacing:0px;fill:#ffffff;stroke:none;stroke-width:2;stroke-linecap:square;stroke-linejoin:bevel"
           id="path4192" />
        <path
           d="m 605.65875,1401.2427 -5.75927,0 -9.10889,-15.8594 -0.10254,0.034 0,15.8252 -5.79346,0 0,-24.8828 5.79346,0 9.10889,15.8593 0.10254,-0.034 0,-15.8252 5.75927,0 0,24.8828 z"
           style="font-style:normal;font-variant:normal;font-weight:900;font-stretch:normal;font-size:35px;font-family:Roboto;-inkscape-font-specification:'Roboto Heavy';letter-spacing:0px;fill:#ffffff;stroke:none;stroke-width:2;stroke-linecap:square;stroke-linejoin:bevel"
           id="path4194" />
        <path
           d="m 622.78278,1394.646 q 0,-1.3159 -0.87159,-2.0337 -0.87158,-0.7178 -3.12744,-1.521 -4.71679,-1.4868 -6.98974,-3.1787 -2.27295,-1.709 -2.27295,-4.9219 0,-3.1274 2.70019,-5.0586 2.71729,-1.9311 6.88721,-1.9311 4.13574,0 6.76758,2.1362 2.64892,2.1191 2.56347,5.4688 l -0.0342,0.1025 -5.60546,0 q 0,-1.4868 -1.00831,-2.4097 -1.0083,-0.9399 -2.78564,-0.9399 -1.74316,0 -2.73437,0.769 -0.99122,0.7691 -0.99122,1.897 0,1.0938 0.99122,1.7603 1.0083,0.6494 3.75976,1.6406 4.23828,1.2646 6.37451,3.1103 2.15332,1.8457 2.15332,5.0757 0,3.2813 -2.56347,5.1441 -2.54639,1.8457 -6.76758,1.8457 -4.23828,0 -7.33154,-2.1192 -3.09327,-2.1362 -3.00782,-6.1352 l 0.0342,-0.1026 5.62256,0 q 0,2.1533 1.16211,3.0762 1.16211,0.9229 3.52051,0.9229 1.79443,0 2.66601,-0.7178 0.88868,-0.7178 0.88868,-1.8799 z"
           style="font-style:normal;font-variant:normal;font-weight:900;font-stretch:normal;font-size:35px;font-family:Roboto;-inkscape-font-specification:'Roboto Heavy';letter-spacing:0px;fill:#ffffff;stroke:none;stroke-width:2;stroke-linecap:square;stroke-linejoin:bevel"
           id="path4196" />
        <path
           d="m 644.87994,1396.4063 -7.84423,0 -1.40137,4.8364 -5.81055,0 8.03223,-24.8828 6.20361,0 8.04932,24.8828 -5.81055,0 -1.41846,-4.8364 z m -6.5625,-4.4434 5.28077,0 -2.59766,-8.9038 -0.10254,0 -2.58057,8.9038 z"
           style="font-style:normal;font-variant:normal;font-weight:900;font-stretch:normal;font-size:35px;font-family:Roboto;-inkscape-font-specification:'Roboto Heavy';letter-spacing:0px;fill:#ffffff;stroke:none;stroke-width:2;stroke-linecap:square;stroke-linejoin:bevel"
           id="path4198" />
        <path
           d="m 673.19781,1392.6807 0.10254,0 3.26416,-16.3208 5.58838,0 -5.708,24.8828 -5.43458,0 -4.18701,-15.3467 -0.10254,0 -4.15283,15.3467 -5.43457,0 -5.7251,-24.8828 5.60547,0 3.26416,16.3208 0.10254,0 4.39209,-16.3208 4.01612,0 4.40917,16.3208 z"
           style="font-style:normal;font-variant:normal;font-weight:900;font-stretch:normal;font-size:35px;font-family:Roboto;-inkscape-font-specification:'Roboto Heavy';letter-spacing:0px;fill:#ffffff;stroke:none;stroke-width:2;stroke-linecap:square;stroke-linejoin:bevel"
           id="path4200" />
      </g>
    </g>
    <g
       id="g13396-0-6"
       style="fill:#000000"
       transform="translate(29.144897,592.03532)" />
    <g
       style="font-style:normal;font-weight:normal;font-size:67.48947906px;line-height:125%;font-family:sans-serif;letter-spacing:0px;word-spacing:0px;fill:#ff6600;fill-opacity:1;stroke:none;stroke-width:1px;stroke-linecap:butt;stroke-linejoin:miter;stroke-opacity:1"
       id="text9254-3-6-7"
       transform="matrix(0.9099012,0,0,1.2463072,-136.85335,-791.67468)">
      <path
         d="m 551.2713,766.47611 10.74296,33.57997 0.19772,0 10.87477,-33.57997 14.69742,0 0,47.9808 -11.17136,0 0,-11.89634 1.05452,-21.91431 -0.19772,-0.033 -11.5668,33.8436 -7.51348,0 -11.43498,-33.54702 -0.19772,0.033 1.05452,21.61772 0,11.89634 -11.17135,0 0,-47.9808 14.6315,0 z"
         style="font-style:normal;font-variant:normal;font-weight:900;font-stretch:normal;font-family:Roboto;-inkscape-font-specification:'Roboto Heavy';fill:#ff6600;fill-opacity:1"
         id="path9440-7-3-8"
         inkscape:connector-curvature="0" />
    </g>
    <path
       inkscape:connector-curvature="0"
       id="path4170"
       style="font-style:normal;font-variant:normal;font-weight:900;font-stretch:normal;font-size:medium;line-height:125%;font-family:Roboto;-inkscape-font-specification:'Roboto Heavy';letter-spacing:-1.16333771px;word-spacing:0px;fill:#ff6600;fill-opacity:1;stroke:none;stroke-width:1px;stroke-linecap:butt;stroke-linejoin:miter;stroke-opacity:1"
       d="m 415.33611,213.35154 q -0.31679,-0.7778 -0.58832,-1.7351 -0.24891,-0.9573 -0.42993,-1.97444 -1.08614,2.00434 -2.62484,3.20098 -1.53869,1.1667 -3.73359,1.1667 -3.48469,0 -5.6796,-2.66248 -2.17227,-2.6625 -2.17227,-7.09 0,-4.81642 2.71534,-7.41907 2.73797,-2.63257 8.30443,-2.63257 l 2.78323,0 0,-2.3035 q 0,-2.06418 -0.74673,-3.17105 -0.72409,-1.10688 -2.26278,-1.10688 -1.31242,0 -1.96863,0.83764 -0.63358,0.80772 -0.63358,2.54282 l -7.39931,-0.0299 -0.0452,-0.17948 q -0.1584,-4.42752 2.78322,-7.38916 2.94162,-2.99156 7.78399,-2.99156 4.52557,0 7.33143,2.99156 2.82847,2.99156 2.82847,8.55586 l 0,12.20556 q 0,2.60266 0.3168,4.81641 0.33942,2.21376 0.99562,4.3976 l -7.5577,-0.0299 z m -5.04601,-6.55152 q 1.13139,0 2.08176,-0.59831 0.95037,-0.59831 1.5387,-1.55561 l 0,-5.05574 -2.71535,0 q -1.81023,0 -2.64746,1.16671 -0.8146,1.16671 -0.8146,2.96165 0,1.37612 0.70146,2.24366 0.72409,0.83764 1.85549,0.83764 z" />
    <path
       inkscape:connector-curvature="0"
       id="path4172"
       style="font-style:normal;font-variant:normal;font-weight:900;font-stretch:normal;font-size:medium;line-height:125%;font-family:Roboto;-inkscape-font-specification:'Roboto Heavy';letter-spacing:-1.16333771px;word-spacing:0px;fill:#ff6600;fill-opacity:1;stroke:none;stroke-width:1px;stroke-linecap:butt;stroke-linejoin:miter;stroke-opacity:1"
       d="m 437.63104,204.28711 q 0,-1.19662 -1.04087,-2.12401 -1.01826,-0.9573 -3.7336,-1.70518 -4.27667,-1.10688 -6.44894,-3.4403 -2.17228,-2.33341 -2.17228,-6.37202 0,-4.27793 2.71534,-7.23957 2.71535,-2.99156 7.35406,-2.99156 4.88762,0 7.78398,2.90182 2.89637,2.87189 2.7606,7.44898 l -0.0452,0.17949 -7.42194,0 q 0,-1.9146 -0.74673,-2.90181 -0.72409,-0.98722 -2.35329,-0.98722 -1.19928,0 -2.01388,0.86756 -0.81461,0.86754 -0.81461,2.21375 0,1.28637 0.92774,2.18383 0.95037,0.89747 3.80149,1.61545 4.48032,1.16671 6.62996,3.50012 2.17228,2.3035 2.17228,6.55152 0,4.36768 -2.94162,7.20966 -2.919,2.81206 -7.73873,2.81206 -5.00077,0 -7.91976,-3.35054 -2.89636,-3.35056 -2.76059,-7.4789 l 0.0452,-0.1795 6.92413,0 q 0.0452,2.3035 1.04088,3.32063 1.01826,1.01713 2.87374,1.01713 1.5387,0 2.33067,-0.7778 0.79197,-0.80772 0.79197,-2.27359 z" />
    <path
       inkscape:connector-curvature="0"
       id="path4174"
       style="font-style:normal;font-variant:normal;font-weight:900;font-stretch:normal;font-size:medium;line-height:125%;font-family:Roboto;-inkscape-font-specification:'Roboto Heavy';letter-spacing:-1.16333771px;word-spacing:0px;fill:#ff6600;fill-opacity:1;stroke:none;stroke-width:1px;stroke-linecap:butt;stroke-linejoin:miter;stroke-opacity:1"
       d="m 456.62231,172.96549 0,8.0473 4.1409,0 0,7.00024 -4.1409,0 0,14.83813 q 0,1.7351 0.52044,2.51292 0.54307,0.74788 1.44819,0.74788 0.72409,0 1.13139,-0.0598 0.42993,-0.0598 1.08614,-0.23932 l 0.54306,7.4789 q -1.26715,0.3889 -2.28541,0.53848 -1.01825,0.1795 -2.39855,0.1795 -3.77885,0 -5.72485,-2.66249 -1.946,-2.66249 -1.946,-8.43619 l 0,-14.89798 -3.43943,0 0,-7.00024 3.43943,0 0,-8.04729 7.62559,0 z" />
    <path
       inkscape:connector-curvature="0"
       id="path4176"
       style="font-style:normal;font-variant:normal;font-weight:900;font-stretch:normal;font-size:medium;line-height:125%;font-family:Roboto;-inkscape-font-specification:'Roboto Heavy';letter-spacing:-1.16333771px;word-spacing:0px;fill:#ff6600;fill-opacity:1;stroke:none;stroke-width:1px;stroke-linecap:butt;stroke-linejoin:miter;stroke-opacity:1"
       d="m 474.5727,214.00968 q -5.40806,0 -8.64385,-4.48734 -3.21314,-4.48734 -3.21314,-11.24826 l 0,-1.1368 q 0,-7.38915 2.91898,-12.05597 2.94163,-4.69676 8.39495,-4.66684 4.97812,0 7.80661,3.94886 2.82848,3.94886 2.82848,10.70978 l 0,5.29506 -13.98402,0 -0.0452,0.17949 q 0.2489,2.483 1.5387,4.09844 1.28978,1.58552 3.43943,1.58552 2.17227,0 3.46207,-0.44873 1.31241,-0.44873 3.30367,-1.55561 l 1.81022,6.16262 q -1.60657,1.5556 -4.16353,2.60264 -2.53432,1.01714 -5.45331,1.01714 z m -0.54306,-25.81715 q -1.65184,0 -2.48907,1.5556 -0.8146,1.55562 -0.99562,4.15827 l 0.0678,0.14958 6.58471,0 0,-0.77781 q 0,-2.45308 -0.76935,-3.76936 -0.76934,-1.31628 -2.39855,-1.31628 z" />
    <path
       inkscape:connector-curvature="0"
       id="path4178"
       style="font-style:normal;font-variant:normal;font-weight:900;font-stretch:normal;font-size:medium;line-height:125%;font-family:Roboto;-inkscape-font-specification:'Roboto Heavy';letter-spacing:-1.16333771px;word-spacing:0px;fill:#ff6600;fill-opacity:1;stroke:none;stroke-width:1px;stroke-linecap:butt;stroke-linejoin:miter;stroke-opacity:1"
       d="m 500.737,189.92763 -2.78323,-0.0299 q -1.31241,0 -2.14964,0.59832 -0.83724,0.5684 -1.24454,1.64536 l 0,21.24007 -7.64821,0 0,-32.36867 7.19566,0 0.27153,4.75658 q 0.76935,-2.54284 2.03651,-3.94886 1.26716,-1.40604 2.96425,-1.40604 0.54307,0 1.10877,0.11966 0.56569,0.0898 0.99562,0.23933 l -0.74672,9.15417 z" />
  </g>
</svg>
