<?xml version="1.0" encoding="UTF-8" standalone="no"?>
<!-- Created with Inkscape (http://www.inkscape.org/) -->

<svg
   xmlns:dc="http://purl.org/dc/elements/1.1/"
   xmlns:cc="http://creativecommons.org/ns#"
   xmlns:rdf="http://www.w3.org/1999/02/22-rdf-syntax-ns#"
   xmlns:svg="http://www.w3.org/2000/svg"
   xmlns="http://www.w3.org/2000/svg"
   xmlns:xlink="http://www.w3.org/1999/xlink"
   xmlns:sodipodi="http://sodipodi.sourceforge.net/DTD/sodipodi-0.dtd"
   xmlns:inkscape="http://www.inkscape.org/namespaces/inkscape"
   width="94.501564mm"
   height="20.644711mm"
   viewBox="0 0 334.84806 73.150549"
   id="svg2"
   version="1.1"
   inkscape:version="0.91 r13725"
   sodipodi:docname="logo_subtle.svg"
   inkscape:export-filename="C:\Users\Dell\Dropbox\Shared\Chainsaw Master\Graphics\Chainsaw Master - Logo 1400x306.png"
   inkscape:export-xdpi="376.29001"
   inkscape:export-ydpi="376.29001">
  <defs
     id="defs4">
    <linearGradient
       inkscape:collect="always"
       id="linearGradient8279">
      <stop
         style="stop-color:#ff6600;stop-opacity:1;"
         offset="0"
         id="stop8281" />
      <stop
         style="stop-color:#000000;stop-opacity:1"
         offset="1"
         id="stop8283" />
    </linearGradient>
    <linearGradient
       inkscape:collect="always"
       xlink:href="#linearGradient8279"
       id="linearGradient8299"
       x1="214.63902"
       y1="370.26657"
       x2="179.81165"
       y2="370.26657"
       gradientUnits="userSpaceOnUse" />
  </defs>
  <sodipodi:namedview
     id="base"
     pagecolor="#ffffff"
     bordercolor="#666666"
     borderopacity="1.0"
     inkscape:pageopacity="0.0"
     inkscape:pageshadow="2"
     inkscape:zoom="1.76"
     inkscape:cx="146.29525"
     inkscape:cy="14.374591"
     inkscape:document-units="px"
     inkscape:current-layer="layer1"
     showgrid="false"
     inkscape:object-nodes="true"
     inkscape:snap-smooth-nodes="true"
     inkscape:snap-global="true"
     inkscape:window-width="1035"
     inkscape:window-height="697"
     inkscape:window-x="237"
     inkscape:window-y="-8"
     inkscape:window-maximized="1"
     showguides="false"
     inkscape:guide-bbox="true"
     fit-margin-top="0"
     fit-margin-left="0"
     fit-margin-right="0"
     fit-margin-bottom="0">
    <sodipodi:guide
       position="410.78818,-768.23991"
       orientation="0,1"
       id="guide13530" />
    <sodipodi:guide
       position="410.78818,-734.53487"
       orientation="0,1"
       id="guide13532" />
  </sodipodi:namedview>
  <metadata
     id="metadata7">
    <rdf:RDF>
      <cc:Work
         rdf:about="">
        <dc:format>image/svg+xml</dc:format>
        <dc:type
           rdf:resource="http://purl.org/dc/dcmitype/StillImage" />
        <dc:title />
      </cc:Work>
    </rdf:RDF>
  </metadata>
  <g
     inkscape:label="Layer 1"
     inkscape:groupmode="layer"
     id="layer1"
     transform="translate(-166.63566,-156.91417)">
    <g
       style="font-style:normal;font-weight:normal;font-size:15px;line-height:125%;font-family:sans-serif;letter-spacing:0px;word-spacing:0px;fill:#000000;fill-opacity:0.98235294;stroke:none;stroke-width:1px;stroke-linecap:butt;stroke-linejoin:miter;stroke-opacity:1"
       id="text8068-2-9"
       transform="translate(0,-55.535714)" />
    <g
       id="g13383-7-2"
       style="fill:#ff7f2a"
       transform="translate(-231.07039,-788.23708)">
      <path
         sodipodi:nodetypes="cccc"
         inkscape:connector-curvature="0"
         id="use8612-1-9-8-0"
         d="m 397.70605,981.65042 c 4.0467,-1.01265 6.39936,2.06342 7.67449,5.2301 1.63669,2.75503 3.35379,-11.82377 -0.21041,-10.75644 -7.1924,1.31682 -7.20103,3.98425 -7.46408,5.52634 z"
         style="fill:#ff7f2a;fill-rule:evenodd;stroke:none;stroke-width:1px;stroke-linecap:butt;stroke-linejoin:miter;stroke-opacity:1" />
      <g
         style="fill:#ff7f2a"
         id="g13918">
        <path
           style="fill:#ff7f2a;fill-rule:evenodd;stroke:none;stroke-width:1px;stroke-linecap:butt;stroke-linejoin:miter;stroke-opacity:1"
           d="m 557.62693,950.59836 c 0.62307,4.12466 -2.66273,6.17407 -5.93639,7.14223 l 10.72767,0.81363 c -0.62673,-7.28501 -3.28124,-7.54733 -4.79128,-7.95586 z"
           id="path8469-3-9-8-7-0-0-4"
           inkscape:connector-curvature="0"
           sodipodi:nodetypes="cccc" />
        <path
           style="fill:#ff7f2a;fill-rule:evenodd;stroke:none;stroke-width:1px;stroke-linecap:butt;stroke-linejoin:miter;stroke-opacity:1"
           d="m 557.65427,1012.7758 c -1.25244,-3.979 1.67751,-6.5112 4.76243,-7.9733 l -10.72466,0.8524 c 1.74406,7.101 4.40724,6.9503 5.96223,7.1209 z"
           id="path8469-3-9-8-7-1-1-6-8"
           inkscape:connector-curvature="0"
           sodipodi:nodetypes="cccc" />
      </g>
      <g
         style="fill:#ff7f2a"
         id="g13906"
         transform="translate(-1.0685425,0)">
        <path
           sodipodi:nodetypes="cccc"
           inkscape:connector-curvature="0"
           id="use8606-5-3-1-4"
           d="m 488.17724,945.23611 c 0.76049,4.10157 -2.45503,6.2596 -5.69451,7.33657 l 10.74885,0.45483 c -0.86975,-7.26002 -3.53154,-7.43352 -5.05434,-7.7914 z"
           style="fill:#ff7f2a;fill-rule:evenodd;stroke:none;stroke-width:1px;stroke-linecap:butt;stroke-linejoin:miter;stroke-opacity:1" />
        <path
           sodipodi:nodetypes="cccc"
           inkscape:connector-curvature="0"
           id="use8606-5-9-5-7-5"
           d="m 488.19394,1018.1519 c -1.11317,-4.0202 1.90319,-6.4489 5.03713,-7.8027 l -10.74782,0.4788 c 1.49577,7.1573 4.16259,7.0993 5.71069,7.3239 z"
           style="fill:#ff7f2a;fill-rule:evenodd;stroke:none;stroke-width:1px;stroke-linecap:butt;stroke-linejoin:miter;stroke-opacity:1" />
      </g>
      <g
         style="fill:#ff7f2a"
         id="g13910"
         transform="translate(-0.72079468,0)">
        <path
           sodipodi:nodetypes="cccc"
           inkscape:connector-curvature="0"
           id="use8608-4-88-3-1"
           d="m 451.98403,945.15125 c 1.14273,4.01191 -1.85561,6.46268 -4.97951,7.83944 l 10.74399,-0.55776 c -1.54845,-7.14609 -4.21477,-7.06858 -5.76448,-7.28168 z"
           style="fill:#ff7f2a;fill-rule:evenodd;stroke:none;stroke-width:1px;stroke-linecap:butt;stroke-linejoin:miter;stroke-opacity:1" />
        <path
           sodipodi:nodetypes="cccc"
           inkscape:connector-curvature="0"
           id="use8608-4-8-2-8-48"
           d="m 452.01408,1018.3018 c -0.7375,-4.1057 2.49002,-6.2457 5.73551,-7.3046 l -10.74615,-0.515 c 0.82905,7.2648 3.48985,7.4532 5.01063,7.8196 z"
           style="fill:#ff7f2a;fill-rule:evenodd;stroke:none;stroke-width:1px;stroke-linecap:butt;stroke-linejoin:miter;stroke-opacity:1" />
      </g>
      <g
         style="fill:#ff7f2a"
         id="g13922">
        <path
           sodipodi:nodetypes="cccc"
           inkscape:connector-curvature="0"
           id="use8610-8-2-2-2"
           d="m 412.20337,953.2061 c 3.03607,2.86064 1.71579,6.50118 -0.26232,9.2835 l 8.94261,-5.98121 c -4.98962,-5.34494 -7.24008,-3.91291 -8.68029,-3.30229 z"
           style="fill:#ff7f2a;fill-rule:evenodd;stroke:none;stroke-width:1px;stroke-linecap:butt;stroke-linejoin:miter;stroke-opacity:1" />
        <path
           sodipodi:nodetypes="cccc"
           inkscape:connector-curvature="0"
           id="use8610-8-5-0-7-0"
           d="m 412.99236,1011.2875 c 1.09836,-4.0242 4.93232,-4.5695 8.31788,-4.131 4.43578,-0.7165 -8.30891,-8.24733 -9.48202,-5.083 -2.37325,6.9161 -0.0517,8.2297 1.16414,9.214 z"
           style="fill:#ff7f2a;fill-rule:evenodd;stroke:none;stroke-width:1px;stroke-linecap:butt;stroke-linejoin:miter;stroke-opacity:1" />
      </g>
      <g
         style="fill:#ff7f2a"
         id="g13914"
         transform="translate(-0.48950195,0)">
        <path
           sodipodi:nodetypes="cccc"
           inkscape:connector-curvature="0"
           id="use8606-5-7-7-3-8"
           d="m 522.8906,947.74191 c 0.67378,4.11669 -2.58654,6.20638 -5.84804,7.21475 l 10.73686,0.68157 c -0.71635,-7.27678 -3.37388,-7.50642 -4.88882,-7.89632 z"
           style="fill:#ff7f2a;fill-rule:evenodd;stroke:none;stroke-width:1px;stroke-linecap:butt;stroke-linejoin:miter;stroke-opacity:1" />
        <path
           sodipodi:nodetypes="cccc"
           inkscape:connector-curvature="0"
           id="use8606-5-7-2-8-3-4"
           d="m 523.01984,1015.6857 c -1.25717,-3.9775 1.66977,-6.5132 4.75296,-7.9789 l -10.72362,0.8654 c 1.75249,7.0989 4.41547,6.9449 5.97066,7.1135 z"
           style="fill:#ff7f2a;fill-rule:evenodd;stroke:none;stroke-width:1px;stroke-linecap:butt;stroke-linejoin:miter;stroke-opacity:1" />
      </g>
    </g>
    <path
       style="fill:#ff7f2a;fill-rule:evenodd;stroke:none;stroke-width:1px;stroke-linecap:butt;stroke-linejoin:miter;stroke-opacity:1"
       d="m 232.55424,163.9721 c -2.16733,0.022 -4.29589,0.066 -6.38086,0.1368 -16.67974,0.5618 -30.24904,0.8531 -39.65429,5.5097 -9.40528,4.6566 -12.28321,13.1682 -12.28321,23.8692 0,10.7009 2.87794,19.2125 12.28321,23.8691 9.40524,4.6566 22.97455,4.9479 39.65429,5.5098 33.35949,1.1238 77.65862,-4.2556 120.17969,-7.3399 l 0,-44.0781 c -39.8635,-2.8915 -81.28889,-7.8003 -113.79883,-7.4766 z"
       id="path13534-7-3"
       inkscape:connector-curvature="0" />
    <g
       id="g13400-9-3"
       style="fill:#ff6600"
       transform="translate(-231.07039,-787.96446)">
      <path
         style="color:#000000;font-style:normal;font-variant:normal;font-weight:normal;font-stretch:normal;font-size:medium;line-height:normal;font-family:sans-serif;text-indent:0;text-align:start;text-decoration:none;text-decoration-line:none;text-decoration-style:solid;text-decoration-color:#000000;letter-spacing:normal;word-spacing:normal;text-transform:none;direction:ltr;block-progression:tb;writing-mode:lr-tb;baseline-shift:baseline;text-anchor:start;white-space:normal;clip-rule:nonzero;display:inline;overflow:visible;visibility:visible;opacity:1;isolation:auto;mix-blend-mode:normal;color-interpolation:sRGB;color-interpolation-filters:linearRGB;solid-color:#000000;solid-opacity:1;fill:#ff6600;fill-opacity:1;fill-rule:evenodd;stroke:none;stroke-width:15;stroke-linecap:butt;stroke-linejoin:miter;stroke-miterlimit:4;stroke-dasharray:none;stroke-dashoffset:0;stroke-opacity:1;color-rendering:auto;image-rendering:auto;shape-rendering:auto;text-rendering:auto;enable-background:accumulate"
         d="M 65.970703 12.234375 C 63.838222 12.254849 61.74945 12.298385 59.707031 12.367188 C 31.603721 13.890107 12.865234 11.904169 12.865234 36.574219 C 12.865234 61.244289 31.603721 59.256397 59.707031 60.779297 C 92.385731 61.880097 137.02717 56.522431 179.71875 53.425781 L 179.71875 19.720703 C 139.69539 16.817556 97.957919 11.927262 65.970703 12.234375 z "
         transform="translate(397.70605,944.87863)"
         id="path9562-5-2-6-7" />
    </g>
    <g
       transform="scale(0.88247327,1.1331788)"
       style="font-style:normal;font-weight:normal;font-size:35px;line-height:125%;font-family:sans-serif;letter-spacing:0px;word-spacing:0px;fill:#ff7f2a;fill-opacity:1;stroke:none;stroke-width:2;stroke-linecap:square;stroke-linejoin:bevel;stroke-opacity:1"
       id="text9250-7-4-4">
      <path
         d="m 229.21848,174.45627 0.0342,0.10254 q -0.1709,4.375 -2.59766,6.68213 -2.40967,2.30713 -7.00684,2.30713 -4.61425,0 -7.50244,-2.83692 -2.88818,-2.83691 -2.88818,-7.36572 l 0,-5.19531 q 0,-4.51172 2.76855,-7.34864 2.78565,-2.854 7.22901,-2.854 4.71679,0 7.21191,2.37549 2.49512,2.37549 2.81982,6.75049 l -0.0342,0.10253 -5.62256,0 q -0.11963,-2.42675 -1.09375,-3.60595 -0.95703,-1.1792 -3.28125,-1.1792 -1.96534,0 -3.09327,1.58935 -1.12792,1.57227 -1.12792,4.13575 l 0,5.22949 q 0,2.58056 1.23046,4.16992 1.23047,1.58936 3.38379,1.58936 2.08496,0 2.95655,-1.11084 0.87158,-1.11084 0.99121,-3.5376 l 5.62256,0 z"
         style="font-style:normal;font-variant:normal;font-weight:900;font-stretch:normal;font-size:35px;font-family:Roboto;-inkscape-font-specification:'Roboto Heavy';letter-spacing:0px;fill:#ff7f2a;stroke:none;stroke-width:2;stroke-linecap:square;stroke-linejoin:bevel"
         id="path4179" />
      <path
         d="m 253.09299,183.18918 -5.75928,0 0,-10.01465 -9.21143,0 0,10.01465 -5.79345,0 0,-24.88281 5.79345,0 0,10.4248 9.21143,0 0,-10.4248 5.75928,0 0,24.88281 z"
         style="font-style:normal;font-variant:normal;font-weight:900;font-stretch:normal;font-size:35px;font-family:Roboto;-inkscape-font-specification:'Roboto Heavy';letter-spacing:0px;fill:#ff7f2a;stroke:none;stroke-width:2;stroke-linecap:square;stroke-linejoin:bevel"
         id="path4181" />
      <path
         d="m 270.5759,178.35275 -7.84424,0 -1.40137,4.83643 -5.81055,0 8.03223,-24.88281 6.20361,0 8.04932,24.88281 -5.81055,0 -1.41845,-4.83643 z m -6.5625,-4.44336 5.28076,0 -2.59766,-8.90381 -0.10254,0 -2.58056,8.90381 z"
         style="font-style:normal;font-variant:normal;font-weight:900;font-stretch:normal;font-size:35px;font-family:Roboto;-inkscape-font-specification:'Roboto Heavy';letter-spacing:0px;fill:#ff7f2a;stroke:none;stroke-width:2;stroke-linecap:square;stroke-linejoin:bevel"
         id="path4183" />
      <path
         d="m 285.7175,183.18918 -5.75928,0 0,-24.88281 5.75928,0 0,24.88281 z"
         style="font-style:normal;font-variant:normal;font-weight:900;font-stretch:normal;font-size:35px;font-family:Roboto;-inkscape-font-specification:'Roboto Heavy';letter-spacing:0px;fill:#ff7f2a;stroke:none;stroke-width:2;stroke-linecap:square;stroke-linejoin:bevel"
         id="path4185" />
      <path
         d="m 310.7883,183.18918 -5.75928,0 -9.10888,-15.85938 -0.10254,0.0342 0,15.8252 -5.79346,0 0,-24.88281 5.79346,0 9.10888,15.85937 0.10254,-0.0342 0,-15.82519 5.75928,0 0,24.88281 z"
         style="font-style:normal;font-variant:normal;font-weight:900;font-stretch:normal;font-size:35px;font-family:Roboto;-inkscape-font-specification:'Roboto Heavy';letter-spacing:0px;fill:#ff7f2a;stroke:none;stroke-width:2;stroke-linecap:square;stroke-linejoin:bevel"
         id="path4187" />
      <path
         d="m 327.91232,176.5925 q 0,-1.31592 -0.87158,-2.03369 -0.87158,-0.71778 -3.12744,-1.521 -4.7168,-1.48682 -6.98975,-3.17871 -2.27295,-1.70898 -2.27295,-4.92187 0,-3.12745 2.7002,-5.0586 2.71728,-1.93115 6.88721,-1.93115 4.13574,0 6.76757,2.13623 2.64893,2.11914 2.56348,5.46875 l -0.0342,0.10254 -5.60547,0 q 0,-1.48682 -1.0083,-2.40967 -1.0083,-0.93994 -2.78564,-0.93994 -1.74317,0 -2.73438,0.76904 -0.99121,0.76905 -0.99121,1.89698 0,1.09375 0.99121,1.76025 1.0083,0.64941 3.75977,1.64062 4.23828,1.26465 6.37451,3.11036 2.15332,1.8457 2.15332,5.07568 0,3.28125 -2.56348,5.14404 -2.54638,1.84571 -6.76757,1.84571 -4.23829,0 -7.33155,-2.11915 -3.09326,-2.13623 -3.00781,-6.13525 l 0.0342,-0.10254 5.62256,0 q 0,2.15332 1.16211,3.07617 1.16211,0.92286 3.52051,0.92286 1.79443,0 2.66601,-0.71778 0.88867,-0.71777 0.88867,-1.87988 z"
         style="font-style:normal;font-variant:normal;font-weight:900;font-stretch:normal;font-size:35px;font-family:Roboto;-inkscape-font-specification:'Roboto Heavy';letter-spacing:0px;fill:#ff7f2a;stroke:none;stroke-width:2;stroke-linecap:square;stroke-linejoin:bevel"
         id="path4189" />
      <path
         d="m 350.00949,178.35275 -7.84424,0 -1.40136,4.83643 -5.81055,0 8.03223,-24.88281 6.20361,0 8.04931,24.88281 -5.81054,0 -1.41846,-4.83643 z m -6.5625,-4.44336 5.28076,0 -2.59765,-8.90381 -0.10254,0 -2.58057,8.90381 z"
         style="font-style:normal;font-variant:normal;font-weight:900;font-stretch:normal;font-size:35px;font-family:Roboto;-inkscape-font-specification:'Roboto Heavy';letter-spacing:0px;fill:#ff7f2a;stroke:none;stroke-width:2;stroke-linecap:square;stroke-linejoin:bevel"
         id="path4191" />
      <path
         d="m 378.32736,174.62717 0.10254,0 3.26416,-16.3208 5.58838,0 -5.70801,24.88281 -5.43457,0 -4.18701,-15.34668 -0.10254,0 -4.15283,15.34668 -5.43457,0 -5.7251,-24.88281 5.60547,0 3.26416,16.3208 0.10254,0 4.39209,-16.3208 4.01611,0 4.40918,16.3208 z"
         style="font-style:normal;font-variant:normal;font-weight:900;font-stretch:normal;font-size:35px;font-family:Roboto;-inkscape-font-specification:'Roboto Heavy';letter-spacing:0px;fill:#ff7f2a;stroke:none;stroke-width:2;stroke-linecap:square;stroke-linejoin:bevel"
         id="path4193" />
    </g>
    <g
       id="g13396-0-6"
       style="fill:#000000"
       transform="translate(29.144897,592.03532)" />
    <g
       style="font-style:normal;font-weight:normal;font-size:67.48947906px;line-height:125%;font-family:sans-serif;letter-spacing:0px;word-spacing:0px;fill:#ff7f2a;fill-opacity:1;stroke:none;stroke-width:1px;stroke-linecap:butt;stroke-linejoin:miter;stroke-opacity:1"
       id="text9254-3-6-7"
       transform="matrix(0.9099012,0,0,1.2463072,-136.85335,-791.67468)">
      <path
         d="m 551.2713,766.47611 10.74296,33.57997 0.19772,0 10.87477,-33.57997 14.69742,0 0,47.9808 -11.17136,0 0,-11.89634 1.05452,-21.91431 -0.19772,-0.033 -11.5668,33.8436 -7.51348,0 -11.43498,-33.54702 -0.19772,0.033 1.05452,21.61772 0,11.89634 -11.17135,0 0,-47.9808 14.6315,0 z"
         style="font-style:normal;font-variant:normal;font-weight:900;font-stretch:normal;font-family:Roboto;-inkscape-font-specification:'Roboto Heavy';fill:#ff7f2a;fill-opacity:1"
         id="path9440-7-3-8"
         inkscape:connector-curvature="0" />
    </g>
    <g
       transform="scale(0.86970702,1.1498125)"
       style="font-style:normal;font-weight:normal;font-size:53.28445435px;line-height:125%;font-family:sans-serif;letter-spacing:0px;word-spacing:0px;fill:#ff7f2a;fill-opacity:1;stroke:none;stroke-width:1px;stroke-linecap:butt;stroke-linejoin:miter;stroke-opacity:1"
       id="text9254-9-2-9-1">
      <path
         d="m 477.55865,185.55333 q -0.36425,-0.67646 -0.67646,-1.50903 -0.2862,-0.83257 -0.49434,-1.71718 -1.24886,1.74319 -3.01807,2.78391 -1.76921,1.01469 -4.29293,1.01469 -4.00674,0 -6.53047,-2.31558 -2.49771,-2.31559 -2.49771,-6.16622 0,-4.18887 3.12214,-6.45242 3.14815,-2.28956 9.54853,-2.28956 l 3.20019,0 0,-2.00337 q 0,-1.79523 -0.85859,-2.75789 -0.83257,-0.96266 -2.60178,-0.96266 -1.50903,0 -2.26355,0.7285 -0.7285,0.70248 -0.7285,2.21151 l -8.50782,-0.026 -0.052,-0.1561 q -0.18213,-3.85064 3.20019,-6.4264 3.38231,-2.60178 8.95012,-2.60178 5.20356,0 8.42977,2.60178 3.25222,2.60178 3.25222,7.44109 l 0,10.61526 q 0,2.26355 0.36425,4.18887 0.39027,1.92532 1.14478,3.82462 l -8.68994,-0.026 z m -5.80197,-5.6979 q 1.30089,0 2.39364,-0.52036 1.09274,-0.52035 1.76921,-1.35292 l 0,-4.39701 -3.12214,0 q -2.08142,0 -3.04408,1.01469 -0.93664,1.0147 -0.93664,2.57577 0,1.19682 0.80655,1.95133 0.83257,0.7285 2.13346,0.7285 z"
         style="font-style:normal;font-variant:normal;font-weight:900;font-stretch:normal;font-family:Roboto;-inkscape-font-specification:'Roboto Heavy';letter-spacing:-1.16333771px;fill:#ff7f2a"
         id="path4168" />
      <path
         d="m 503.19364,177.66993 q 0,-1.04071 -1.19681,-1.84726 -1.17081,-0.83257 -4.29294,-1.48301 -4.91737,-0.96266 -7.41507,-2.99205 -2.49771,-2.02939 -2.49771,-5.54179 0,-3.72055 3.12213,-6.29631 3.12214,-2.60178 8.45579,-2.60178 5.61984,0 8.95012,2.52373 3.33028,2.49771 3.17417,6.47843 l -0.052,0.15611 -8.53384,0 q 0,-1.66514 -0.85859,-2.52373 -0.83257,-0.85859 -2.70585,-0.85859 -1.37894,0 -2.31558,0.75452 -0.93665,0.75451 -0.93665,1.92532 0,1.11876 1.06673,1.89929 1.09275,0.78054 4.371,1.40497 5.15152,1.01469 7.62321,3.04408 2.49771,2.00337 2.49771,5.6979 0,3.7986 -3.38231,6.27029 -3.3563,2.44567 -8.89809,2.44567 -5.74994,0 -9.10623,-2.91399 -3.33028,-2.914 -3.17417,-6.50445 l 0.052,-0.15611 7.96145,0 q 0.052,2.00337 1.19682,2.88797 1.1708,0.88461 3.30426,0.88461 1.76921,0 2.67983,-0.67646 0.91062,-0.70248 0.91062,-1.97736 z"
         style="font-style:normal;font-variant:normal;font-weight:900;font-stretch:normal;font-family:Roboto;-inkscape-font-specification:'Roboto Heavy';letter-spacing:-1.16333771px;fill:#ff7f2a"
         id="path4170" />
      <path
         d="m 525.03004,150.4293 0,6.99879 4.76126,0 0,6.08816 -4.76126,0 0,12.90483 q 0,1.50903 0.59841,2.1855 0.62443,0.65044 1.66514,0.65044 0.83257,0 1.30089,-0.052 0.49434,-0.052 1.24886,-0.20814 l 0.62442,6.50445 q -1.45699,0.33823 -2.6278,0.46832 -1.1708,0.15611 -2.75788,0.15611 -4.34497,0 -6.58251,-2.31558 -2.23753,-2.31559 -2.23753,-7.33702 l 0,-12.95687 -3.9547,0 0,-6.08816 3.9547,0 0,-6.99879 8.768,0 z"
         style="font-style:normal;font-variant:normal;font-weight:900;font-stretch:normal;font-family:Roboto;-inkscape-font-specification:'Roboto Heavy';letter-spacing:-1.16333771px;fill:#ff7f2a"
         id="path4172" />
      <path
         d="m 545.66962,186.12572 q -6.21825,0 -9.9388,-3.90267 -3.69452,-3.90267 -3.69452,-9.78269 l 0,-0.98868 q 0,-6.4264 3.35629,-10.48517 3.38232,-4.0848 9.65261,-4.05878 5.72391,0 8.97614,3.43435 3.25222,3.43435 3.25222,9.31437 l 0,4.60515 -16.079,0 -0.052,0.15611 q 0.28619,2.15948 1.76921,3.56444 1.48301,1.37894 3.9547,1.37894 2.49771,0 3.98073,-0.39027 1.50903,-0.39026 3.7986,-1.35292 l 2.08142,5.35967 q -1.84726,1.35292 -4.78728,2.26354 -2.91399,0.88461 -6.27029,0.88461 z m -0.62442,-22.45336 q -1.8993,0 -2.86196,1.35292 -0.93664,1.35293 -1.14478,3.61648 l 0.078,0.13009 7.57118,0 0,-0.67647 q 0,-2.13346 -0.88461,-3.27824 -0.8846,-1.14478 -2.75788,-1.14478 z"
         style="font-style:normal;font-variant:normal;font-weight:900;font-stretch:normal;font-family:Roboto;-inkscape-font-specification:'Roboto Heavy';letter-spacing:-1.16333771px;fill:#ff7f2a"
         id="path4174" />
      <path
         d="m 575.75366,165.18139 -3.20019,-0.026 q -1.50903,0 -2.47169,0.52036 -0.96266,0.49434 -1.43098,1.43098 l 0,18.47264 -8.79401,0 0,-28.15126 8.27366,0 0.31221,4.13683 q 0.88461,-2.21152 2.3416,-3.43435 1.457,-1.22284 3.40833,-1.22284 0.62443,0 1.27488,0.10407 0.65044,0.0781 1.14478,0.20814 l -0.85859,7.96145 z"
         style="font-style:normal;font-variant:normal;font-weight:900;font-stretch:normal;font-family:Roboto;-inkscape-font-specification:'Roboto Heavy';letter-spacing:-1.16333771px;fill:#ff7f2a"
         id="path4176" />
    </g>
  </g>
</svg>
